<svg xmlns="http://www.w3.org/2000/svg" viewBox="0 0 24 24" id="under-armour"><path d="M23.997 7.227s-.692-.531-2.934-1.346C19.096 5.165 17.593 5 17.593 5l.007 4.251c0 1.797-2.051 3.705-5.553 3.705h-.1c-3.502 0-5.552-1.908-5.552-3.705L6.403 5s-1.501.165-3.469.882C.692 6.697 0 7.227 0 7.227c.166 3.41 5.515 6.219 11.997 6.22h.002c6.482-.001 11.832-2.81 11.998-6.22z"></path><path d="M24 16.774s-.692.529-2.934 1.345c-1.969.717-3.47.881-3.47.881l.008-4.251c0-1.796-2.051-3.704-5.553-3.704l-.049-.001H12l-.049.001c-3.502 0-5.552 1.907-5.552 3.704L6.407 19s-1.502-.164-3.47-.881C.696 17.303.002 16.774.002 16.774c.166-3.409 5.517-6.218 11.999-6.22 6.483.002 11.834 2.811 11.999 6.22z"></path></svg>