<svg xmlns="http://www.w3.org/2000/svg" viewBox="0 0 24 24" id="kotlin"><path d="M.65 23.35a.5.5 0 0 1-.5-.5v-8.625a.5.5 0 0 1 .135-.342L13.135.158A.501.501 0 0 1 13.5 0h9.143A.5.5 0 0 1 23 .851L1.007 23.2a.499.499 0 0 1-.357.15zm.5-8.928v7.207L21.449 1h-7.732L1.15 14.422zM.575 11.88a.5.5 0 0 1-.5-.5V.599a.5.5 0 0 1 .5-.5h10.35a.499.499 0 0 1 .36.847L.936 11.727a.503.503 0 0 1-.361.153zm.5-10.781v9.038l8.677-9.038H1.075zm21.837 22.85H3.334a.5.5 0 0 1-.357-.851l9.746-9.919a.496.496 0 0 1 .355-.149h.001c.134 0 .261.054.355.148l9.832 9.919a.498.498 0 0 1-.354.852zm-18.386-1h17.187l-8.631-8.707-8.556 8.707z"></path></svg>