<svg xmlns="http://www.w3.org/2000/svg" viewBox="0 0 24 24" id="puma"><path fill="#37474F" d="M2.27 3.081c-.155.023-.302.585-.6.878-.22.211-.49.199-.636.46-.055.097-.037.264-.099.424-.122.321-.55.348-.55.697-.001.377.356.448.668.716.243.214.265.363.559.467.123.042.275-.004.437-.049.17-.047.351-.094.522-.043.276.081.54.139.602.42.055.258-.003.659-.337.613-.113-.013-.603-.175-1.201-.113-.726.082-1.551.316-1.632 1.116-.045.447.514.974 1.053.867.373-.073.197-.508.398-.72.267-.271 1.774.945 3.176.945.59 0 1.028-.148 1.465-.6l.155-.113.196.087c1.129.898 1.983 2.7 6.131 2.721.584.004 1.248.279 1.791.769.484.443.768 1.133 1.042 1.832.416 1.049 1.159 2.07 2.287 3.206l1.066.828c.012.008.08.169.055.259-.028.681-.128 2.662 1.364 2.751.364.019.269-.236.269-.41-.001-.345-.064-.688.119-1.041.251-.486-.532-.709-.51-1.76.017-.783-.648-.65-.985-1.246-.193-.346-.366-.529-.354-.952.076-2.379-.511-3.942-.804-4.326-.229-.29-.418-.405-.208-.539 1.243-.814 1.526-1.571 1.526-1.571.662-1.54 1.257-2.947 2.078-3.567.165-.128.589-.442.849-.564.768-.358 1.171-.574 1.392-.789.351-.339.63-1.048.293-1.477-.42-.53-1.146-.109-1.466.079-2.288 1.344-2.625 3.716-3.418 5.078-.634 1.089-1.661 1.888-2.58 1.953-.69.051-1.433-.087-2.171-.409-1.8-.781-2.783-1.789-3.017-1.967-.482-.368-4.235-4.015-7.274-4.165 0 0-.378-.748-.473-.76-.22-.027-.448.447-.611.503-.079.027-.185-.108-.29-.243-.101-.128-.202-.257-.277-.245z"></path><path fill="#303E45" d="M3.43 3.066c-.215 0-.435.448-.593.503a.076.076 0 0 1-.021.003c-.076 0-.173-.123-.269-.246-.097-.123-.193-.246-.267-.246l-.01.001c-.155.023-.302.585-.6.878-.22.211-.49.199-.636.46-.055.097-.037.264-.099.424-.122.321-.55.348-.55.697-.001.377.356.448.668.716.243.214.265.363.559.467.034.012.07.016.109.016.099 0 .211-.033.328-.065.118-.032.24-.065.362-.065.054 0 .107.006.16.022.276.081.54.139.602.42.052.245.002.617-.287.617a.308.308 0 0 1-.051-.004c-.094-.011-.455-.127-.923-.127-.089 0-.182.004-.277.014-.726.082-1.551.316-1.632 1.116-.041.407.419.881.909.881a.78.78 0 0 0 .144-.014c.373-.073.197-.508.398-.72.027-.027.066-.039.117-.039.452 0 1.798.984 3.059.984.59 0 1.028-.148 1.465-.6l.155-.113.196.087c1.075.855 1.9 2.529 5.555 2.706V8.661c-.431-.33-.696-.587-.804-.669-.482-.368-4.235-4.015-7.274-4.165 0 0-.378-.748-.473-.76l-.02-.001z"></path></svg>