<svg xmlns="http://www.w3.org/2000/svg" width="967.81366" height="354.15902" viewBox="0 0 967.81366 354.15902" xmlns:xlink="http://www.w3.org/1999/xlink"><g><path d="M582.90683,353.44906h-218.5V74.9226c0-36.24795,29.49012-65.73807,65.73807-65.73807h87.02386c36.24795,0,65.73807,29.49012,65.73807,65.73807V353.44906Z" fill="#e6e6e6"/><path d="M508.23868,71.85507h-68.21385c-5.47631,0-9.93163-4.45532-9.93163-9.93204v-18.24638c0-5.47673,4.45532-9.93204,9.93163-9.93204h68.21385c5.47673,0,9.93204,4.45532,9.93204,9.93204v18.24638c0,5.47673-4.45532,9.93204-9.93204,9.93204Z" fill="#fff"/><rect x="407.17524" y="82.44131" width="136.35078" height=".8469" transform="translate(558.21539 -392.48587) rotate(90)" fill="#e6e6e6"/><path d="M557.2964,301.78821h-17.37798c-5.01564,0-9.0959-4.08066-9.0959-9.0959v-52.94774c0-5.01523,4.08025-9.0959,9.0959-9.0959h17.37798c5.01564,0,9.0959,4.08066,9.0959,9.0959v52.94774c0,5.01523-4.08025,9.0959-9.0959,9.0959Z" fill="#fff"/><path d="M443.8119,339.05178h-47.86635c-5.01564,0-9.0959-4.08066-9.0959-9.0959v-93.59891c0-5.01523,4.08025-9.0959,9.0959-9.0959h47.86635c5.01564,0,9.0959,4.08066,9.0959,9.0959v93.59891c0,5.01523-4.08025,9.0959-9.0959,9.0959Z" fill="#fff"/><path d="M454.07931,234.45972h-68.35527c-2.57254,0-4.74768-1.58132-5.54124-4.02856-.79314-2.44724,.04011-5.00365,2.12304-6.51385l34.54381-25.03315c2.0668-1.49613,4.83369-1.48207,6.88436,.03639l33.81105,25.03315c2.05687,1.5226,2.86738,4.07653,2.06597,6.5064-.80182,2.42987-2.97283,3.99961-5.53172,3.99961Z" fill="#ccc"/><path d="M564.41606,235.30662h-31.57181c-2.57254,0-4.74768-1.58132-5.54124-4.02856-.79355-2.44724,.04011-5.00365,2.12304-6.51385l15.95545-11.56216c2.0668-1.49696,4.83328-1.4829,6.88395,.03639l15.61677,11.56216c2.05646,1.52177,2.86738,4.0757,2.06597,6.50558-.80182,2.42987-2.97324,4.00044-5.53214,4.00044Z" fill="#ccc"/><g><path d="M550.33305,185.76302h-19.54237c-4.41893,0-8.0137-3.59519-8.0137-8.01411v-55.11131c0-4.41893,3.59477-8.01411,8.0137-8.01411h19.54237c4.41893,0,8.0137,3.59519,8.0137,8.01411v55.11131c0,4.41893-3.59477,8.01411-8.0137,8.01411Z" fill="#fff"/><path d="M483.42801,185.76302h-19.54237c-4.41893,0-8.0137-3.59519-8.0137-8.01411v-55.11131c0-4.41893,3.59477-8.01411,8.0137-8.01411h19.54237c4.41893,0,8.0137,3.59519,8.0137,8.01411v55.11131c0,4.41893-3.59477,8.01411-8.0137,8.01411Z" fill="#fff"/><path d="M415.67607,185.76302h-19.54237c-4.41893,0-8.0137-3.59519-8.0137-8.01411v-55.11131c0-4.41893,3.59477-8.01411,8.0137-8.01411h19.54237c4.41893,0,8.0137,3.59519,8.0137,8.01411v55.11131c0,4.41893-3.59477,8.01411-8.0137,8.01411Z" fill="#fff"/><path d="M556.23116,120.97523h-165.14907c-2.95794,0-4.76877-2.09492-5.25135-4.16999-.48258-2.07672,.21875-4.75554,2.87359-6.06062l83.45969-41.01258c1.50399-.73856,3.29703-.73194,4.79689,.02068l81.68938,41.01258c2.3145,1.16283,3.4244,3.54226,2.82727,6.06228-.59754,2.51919-2.65648,4.14766-5.24639,4.14766Z" fill="#ccc"/></g><path d="M582.48338,353.02561h-209.57655v-21.26925c0-16.75769,24.80731-30.39161,55.30007-30.39161h154.27648v51.66085Z" fill="#3f3d56"/><rect x="490.17136" y="271.29984" width="11.00969" height="40.65116" fill="#3f3d56"/><rect x="571.47369" y="271.29984" width="11.00969" height="40.65116" fill="#3f3d56"/><rect x="499.48725" y="274.68744" width="75.37403" height=".8469" fill="#3f3d56"/><rect x="383.46206" y="150.19325" width="182.93023" height=".8469" fill="#e6e6e6"/><rect x="499.48725" y="288.23782" width="75.37403" height=".8469" fill="#3f3d56"/><rect x="499.48725" y="295.01302" width="75.37403" height=".8469" fill="#3f3d56"/><path d="M516.42772,37.35881h-85.54178c-1.33155,0-2.45717-.81795-2.8678-2.08499-.41063-1.26621,.02068-2.58949,1.09874-3.37106L472.34637,.57576c1.06938-.77329,2.50141-.76833,3.56252,.01902l42.31229,31.327c1.06441,.78735,1.48414,2.10898,1.06938,3.36692-.41477,1.25712-1.53873,2.07011-2.86283,2.07011Z" fill="#ccc"/><rect x="390.23725" y="284.00333" width="15.24419" height="1.6938" fill="#e6e6e6"/></g><g><path d="M334.90683,353.44906H116.40683V74.9226c0-36.24795,29.49012-65.73807,65.73807-65.73807h87.02386c36.24795,0,65.73807,29.49012,65.73807,65.73807V353.44906Z" fill="#e6e6e6"/><path d="M260.23868,71.85507h-68.21385c-5.47631,0-9.93163-4.45532-9.93163-9.93204v-18.24638c0-5.47673,4.45532-9.93204,9.93163-9.93204h68.21385c5.47673,0,9.93204,4.45532,9.93204,9.93204v18.24638c0,5.47673-4.45532,9.93204-9.93204,9.93204Z" fill="#fff"/><rect x="159.17524" y="82.44131" width="136.35078" height=".8469" transform="translate(310.21539 -144.48587) rotate(90)" fill="#e6e6e6"/><path d="M309.2964,301.78821h-17.37798c-5.01564,0-9.0959-4.08066-9.0959-9.0959v-52.94774c0-5.01523,4.08025-9.0959,9.0959-9.0959h17.37798c5.01564,0,9.0959,4.08066,9.0959,9.0959v52.94774c0,5.01523-4.08025,9.0959-9.0959,9.0959Z" fill="#fff"/><path d="M195.8119,339.05178h-47.86635c-5.01564,0-9.0959-4.08066-9.0959-9.0959v-93.59891c0-5.01523,4.08025-9.0959,9.0959-9.0959h47.86635c5.01564,0,9.0959,4.08066,9.0959,9.0959v93.59891c0,5.01523-4.08025,9.0959-9.0959,9.0959Z" fill="#fff"/><path d="M206.07931,234.45972h-68.35527c-2.57254,0-4.74768-1.58132-5.54124-4.02856-.79314-2.44724,.04011-5.00365,2.12304-6.51385l34.54381-25.03315c2.0668-1.49613,4.83369-1.48207,6.88436,.03639l33.81105,25.03315c2.05687,1.5226,2.86738,4.07653,2.06597,6.5064-.80182,2.42987-2.97283,3.99961-5.53172,3.99961Z" fill="#ccc"/><path d="M316.41606,235.30662h-31.57181c-2.57254,0-4.74768-1.58132-5.54124-4.02856-.79355-2.44724,.04011-5.00365,2.12304-6.51385l15.95545-11.56216c2.0668-1.49696,4.83328-1.4829,6.88395,.03639l15.61677,11.56216c2.05646,1.52177,2.86738,4.0757,2.06597,6.50558-.80182,2.42987-2.97324,4.00044-5.53214,4.00044Z" fill="#ccc"/><g><path d="M302.33305,185.76302h-19.54237c-4.41893,0-8.0137-3.59519-8.0137-8.01411v-55.11131c0-4.41893,3.59477-8.01411,8.0137-8.01411h19.54237c4.41893,0,8.0137,3.59519,8.0137,8.01411v55.11131c0,4.41893-3.59477,8.01411-8.0137,8.01411Z" fill="#fff"/><path d="M235.42801,185.76302h-19.54237c-4.41893,0-8.0137-3.59519-8.0137-8.01411v-55.11131c0-4.41893,3.59477-8.01411,8.0137-8.01411h19.54237c4.41893,0,8.0137,3.59519,8.0137,8.01411v55.11131c0,4.41893-3.59477,8.01411-8.0137,8.01411Z" fill="#fff"/><path d="M167.67607,185.76302h-19.54237c-4.41893,0-8.0137-3.59519-8.0137-8.01411v-55.11131c0-4.41893,3.59477-8.01411,8.0137-8.01411h19.54237c4.41893,0,8.0137,3.59519,8.0137,8.01411v55.11131c0,4.41893-3.59477,8.01411-8.0137,8.01411Z" fill="#fff"/><path d="M308.23116,120.97523H143.08209c-2.95794,0-4.76877-2.09492-5.25135-4.16999-.48258-2.07672,.21875-4.75554,2.87359-6.06062l83.45969-41.01258c1.50399-.73856,3.29703-.73194,4.79689,.02068l81.68938,41.01258c2.3145,1.16283,3.4244,3.54226,2.82727,6.06228-.59754,2.51919-2.65648,4.14766-5.24639,4.14766Z" fill="#ccc"/></g><path d="M334.48338,353.02561h-114.75484v-21.26925c0-16.75769,13.58338-30.39161,30.27987-30.39161h84.47497v51.66085Z" fill="#3f3d56"/><rect x="242.17136" y="271.29984" width="11.00969" height="40.65116" fill="#3f3d56"/><rect x="323.47369" y="271.29984" width="11.00969" height="40.65116" fill="#3f3d56"/><rect x="251.48725" y="274.68744" width="75.37403" height=".8469" fill="#3f3d56"/><rect x="135.46206" y="150.19325" width="182.93023" height=".8469" fill="#e6e6e6"/><rect x="251.48725" y="288.23782" width="75.37403" height=".8469" fill="#3f3d56"/><rect x="251.48725" y="295.01302" width="75.37403" height=".8469" fill="#3f3d56"/><path d="M268.42772,37.35881h-85.54178c-1.33155,0-2.45717-.81795-2.8678-2.08499-.41063-1.26621,.02068-2.58949,1.09874-3.37106L224.34637,.57576c1.06938-.77329,2.50141-.76833,3.56252,.01902l42.31229,31.327c1.06441,.78735,1.48414,2.10898,1.06938,3.36692-.41477,1.25712-1.53873,2.07011-2.86283,2.07011Z" fill="#ccc"/><rect x="142.23725" y="284.00333" width="15.24419" height="1.6938" fill="#e6e6e6"/></g><g><path d="M822.90683,353.44906h-218.5V74.9226c0-36.24795,29.49012-65.73807,65.73807-65.73807h87.02386c36.24795,0,65.73807,29.49012,65.73807,65.73807V353.44906Z" fill="#e6e6e6"/><path d="M748.23868,71.85507h-68.21385c-5.47631,0-9.93163-4.45532-9.93163-9.93204v-18.24638c0-5.47673,4.45532-9.93204,9.93163-9.93204h68.21385c5.47673,0,9.93204,4.45532,9.93204,9.93204v18.24638c0,5.47673-4.45532,9.93204-9.93204,9.93204Z" fill="#fff"/><rect x="647.17524" y="82.44131" width="136.35078" height=".8469" transform="translate(798.21539 -632.48587) rotate(90)" fill="#e6e6e6"/><path d="M797.2964,301.78821h-17.37798c-5.01564,0-9.0959-4.08066-9.0959-9.0959v-52.94774c0-5.01523,4.08025-9.0959,9.0959-9.0959h17.37798c5.01564,0,9.0959,4.08066,9.0959,9.0959v52.94774c0,5.01523-4.08025,9.0959-9.0959,9.0959Z" fill="#fff"/><path d="M683.8119,339.05178h-47.86635c-5.01564,0-9.0959-4.08066-9.0959-9.0959v-93.59891c0-5.01523,4.08025-9.0959,9.0959-9.0959h47.86635c5.01564,0,9.0959,4.08066,9.0959,9.0959v93.59891c0,5.01523-4.08025,9.0959-9.0959,9.0959Z" fill="#fff"/><path d="M694.07931,234.45972h-68.35527c-2.57254,0-4.74768-1.58132-5.54124-4.02856-.79314-2.44724,.04011-5.00365,2.12304-6.51385l34.54381-25.03315c2.0668-1.49613,4.83369-1.48207,6.88436,.03639l33.81105,25.03315c2.05687,1.5226,2.86738,4.07653,2.06597,6.5064-.80182,2.42987-2.97283,3.99961-5.53172,3.99961Z" fill="#ccc"/><path d="M804.41606,235.30662h-31.57181c-2.57254,0-4.74768-1.58132-5.54124-4.02856-.79355-2.44724,.04011-5.00365,2.12304-6.51385l15.95545-11.56216c2.0668-1.49696,4.83328-1.4829,6.88395,.03639l15.61677,11.56216c2.05646,1.52177,2.86738,4.0757,2.06597,6.50558-.80182,2.42987-2.97324,4.00044-5.53214,4.00044Z" fill="#ccc"/><g><path d="M790.33305,185.76302h-19.54237c-4.41893,0-8.0137-3.59519-8.0137-8.01411v-55.11131c0-4.41893,3.59477-8.01411,8.0137-8.01411h19.54237c4.41893,0,8.0137,3.59519,8.0137,8.01411v55.11131c0,4.41893-3.59477,8.01411-8.0137,8.01411Z" fill="#fff"/><path d="M723.42801,185.76302h-19.54237c-4.41893,0-8.0137-3.59519-8.0137-8.01411v-55.11131c0-4.41893,3.59477-8.01411,8.0137-8.01411h19.54237c4.41893,0,8.0137,3.59519,8.0137,8.01411v55.11131c0,4.41893-3.59477,8.01411-8.0137,8.01411Z" fill="#fff"/><path d="M655.67607,185.76302h-19.54237c-4.41893,0-8.0137-3.59519-8.0137-8.01411v-55.11131c0-4.41893,3.59477-8.01411,8.0137-8.01411h19.54237c4.41893,0,8.0137,3.59519,8.0137,8.01411v55.11131c0,4.41893-3.59477,8.01411-8.0137,8.01411Z" fill="#fff"/><path d="M796.23116,120.97523h-165.14907c-2.95794,0-4.76877-2.09492-5.25135-4.16999-.48258-2.07672,.21875-4.75554,2.87359-6.06062l83.45969-41.01258c1.50399-.73856,3.29703-.73194,4.79689,.02068l81.68938,41.01258c2.3145,1.16283,3.4244,3.54226,2.82727,6.06228-.59754,2.51919-2.65648,4.14766-5.24639,4.14766Z" fill="#ccc"/></g><path d="M822.48338,353.02561h-114.75484v-21.26925c0-16.75769,13.58338-30.39161,30.27987-30.39161h84.47497v51.66085Z" fill="#3f3d56"/><rect x="730.17136" y="271.29984" width="11.00969" height="40.65116" fill="#3f3d56"/><rect x="811.47369" y="271.29984" width="11.00969" height="40.65116" fill="#3f3d56"/><rect x="739.48725" y="274.68744" width="75.37403" height=".8469" fill="#3f3d56"/><rect x="623.46206" y="150.19325" width="182.93023" height=".8469" fill="#e6e6e6"/><rect x="739.48725" y="288.23782" width="75.37403" height=".8469" fill="#3f3d56"/><rect x="739.48725" y="295.01302" width="75.37403" height=".8469" fill="#3f3d56"/><path d="M756.42772,37.35881h-85.54178c-1.33155,0-2.45717-.81795-2.8678-2.08499-.41063-1.26621,.02068-2.58949,1.09874-3.37106L712.34637,.57576c1.06938-.77329,2.50141-.76833,3.56252,.01902l42.31229,31.327c1.06441,.78735,1.48414,2.10898,1.06938,3.36692-.41477,1.25712-1.53873,2.07011-2.86283,2.07011Z" fill="#ccc"/><rect x="630.23725" y="284.00333" width="15.24419" height="1.6938" fill="#e6e6e6"/></g><g><path d="M152.97684,350.47903c.07001,.59003,.08997,1.14001,.04999,1.67999h-29.69c-.27002-.53998-.5-1.09998-.70001-1.67999-3.63-10.42999,2.34003-27.78998-5.22998-53.52997-5.62-19.10004-16.10999-34.04004-21-41-6.01001-8.56-12.82001-16.46002-20.71002-29.08002-1.70996-2.72998-3.46997-5.69-5.28998-8.91998-.60999-1.08002-7.64001-13.60999-7-14,.29999-.17999,2.15997,2.34998,2.78998,3.20001,5.56,7.51996,8.79004,10.81,13.42004,16.21997,2.81,3.28003,6.13,7.33002,10.78998,13.58002,11.95001,16.01001,17.91998,24.01001,20,30,.54999,1.59998,3.47998,10.26001,9,21,2.82001,5.47998,4.22998,8.21997,5,8,2.17999-.63-.76001-23.32001-10-46-1.58002-3.85999-2.76001-6.33002-5-11-3.64001-7.62-23.90997-49.97003-38.81-75.32001-1.87-3.19-3.65997-6.10004-5.31-8.65002-.32001-.47998-.63-.95001-.92999-1.39996-2.08002-3.10004-3.91998-5.55005-5.45001-7.13-.81-.84003-2.87-3.22003-7-8-1.64001-1.90002-2.84003-3.31-3.65002-4.34003-.12-.14996-.22998-.29999-.31995-.42999-.98004-1.27997-1.26001-1.90002-1.03003-2.22998,.33002-.47003,1.59998-.20001,2.98999,.28998,.15002,.04999,.31,.10999,.46002,.16998,1.51001,.56,3.03998,1.29004,3.54999,1.54004,4.67999,2.25,9.25,6.27997,13.47998,11.07001,1.57001,1.76996,3.08002,3.63995,4.54004,5.56,4.69995,6.19995,8.79999,12.94995,11.89996,18.5,3.79999,6.83997,6.08002,11.87,6.08002,11.87,10.60999,23.42999,22.38,50.22998,23,50,.67999-.25-12.37-33.60999-16.16998-51.73004-1.27002-6.06995-1.5-10.42999,.16998-11.26996,.06-.03003,.12-.06,.19-.08002,.26001-.09003,.5-.08002,.63-.07001,0,0,1.54999-.20001,3.17999,.15002,2.03003,.44,4.34003,6.08997,6.59003,14.01996,5.84998,20.44,11.40997,55.98004,11.40997,55.98004,5.56,35.54999,14,64.32001,16,64,1.10999-.17999-.47998-9.10999,1-24,1.03998-10.44,2.21997-10.12,6-29,6-29.95001,9-44.92004,9-45-.03003-.63-.10999-1.90002,.08002-3.22003,.20001-1.42999,.70996-2.92999,1.91998-3.77997,1.84003-1.29999,4.79999-.73999,6,0,.96002,.59998,1.45001,1.70001,1.56,3.27997,.65997,9.94-13.62,38.76001-18.56,77.72003-2.46002,19.40997-3.81,30,0,44,3.77002,13.88,10.34003,22.71997,11.07001,29.02997Z" fill="#3f3d56"/><path d="M193.40683,99.94906c-8.20374-1.49261-18.39307,3.99872-19,10-.49963,4.94006,5.5722,9.45044,5,10-.53479,.51361-4.29706-4.90662-9-5-7.10626-.14111-15.63531,11.89423-13,19,2.11542,5.70404,11.1795,7.56976,11,8-.16931,.40576-7.07532-4.02106-14-3-9.91473,1.46191-19.40881,14.02441-17,22,2.69153,8.91174,20.11572,11.67126,20,12-.12231,.34753-17.53687-8.56818-24-3-4.33496,3.73468-3.71326,12.44055-1,18,5.66309,11.60364,23.32996,15.71576,32,10,6.74139-4.44427,2.19525-10.97479,9-25,8.35651-17.22345,22.88983-23.19867,23-36,.01001-1.16412,.0423-4.91229-2-6-3.2616-1.73712-9.5564,4.51416-10,4-.47986-.55621,7.94635-6.64362,13-17,1.58954-3.25745,5.20593-10.66846,2-15-1.6322-2.20532-4.35858-2.70135-6-3Z" fill="#607d8b"/><path d="M147.40683,80.94906c-8.20374-1.49261-18.39307,3.99872-19,10-.49963,4.94006,5.5722,9.45044,5,10-.53479,.51361-4.29706-4.90662-9-5-7.10626-.14111-15.63531,11.89423-13,19,2.11542,5.70404,11.1795,7.56976,11,8-.16931,.40576-7.07532-4.02106-14-3-9.91473,1.46191-19.40881,14.02441-17,22,2.69153,8.91174,20.11572,11.67126,20,12-.12231,.34753-17.53687-8.56818-24-3-4.33496,3.73468-3.71326,12.44055-1,18,5.66309,11.60364,23.32996,15.71576,32,10,6.74139-4.44427,2.19525-10.97479,9-25,8.35651-17.22345,22.88983-23.19867,23-36,.01001-1.16412,.0423-4.91229-2-6-3.2616-1.73712-9.5564,4.51416-10,4-.47986-.55621,7.94635-6.64362,13-17,1.58954-3.25745,5.20593-10.66846,2-15-1.6322-2.20532-4.35858-2.70135-6-3Z" fill="#607d8b"/><path d="M91.70497,58.74495c7.77591,3.01071,13.59847,13.01446,10.98244,18.44955-2.15341,4.474-9.6869,5.15017-9.48586,5.91764,.18791,.71728,6.22678-1.94082,10.28643,.43524,6.13423,3.59028,7.12379,18.30812,1.1659,22.99219-4.78256,3.76008-13.48704,.61832-13.55861,1.07898-.06748,.43446,8.1338,.26513,13.50633,4.75174,7.69238,6.42389,9.2297,22.09522,3.0108,27.63938-6.94884,6.19493-23.24991-.54989-23.32287-.2091-.07715,.36026,19.43023,1.84976,22.03479,9.97337,1.74694,5.44866-3.32916,12.5488-8.54608,15.87339-10.88873,6.93906-28.10304,1.22109-32.5127-8.18075-3.42874-7.31039,3.85842-10.50608,5.37846-26.02061,1.86663-19.0524-7.40802-31.73711-.8176-42.71219,.59933-.99804,2.52894-4.21151,4.83867-4.07275,3.6887,.22159,5.79301,8.83988,6.43981,8.63301,.69968-.2238-3.30796-9.81527-2.21023-21.2865,.34529-3.6081,1.13081-11.81689,6.12675-13.83701,2.54355-1.02852,5.12775-.02795,6.68356,.57444Z" fill="#607d8b"/><path d="M3.39805,64.18426c-4.90276,6.74479-4.37363,18.30754,.7707,21.45707,4.23464,2.59262,10.93203-.92244,11.17907-.16851,.23087,.70462-6.28474,1.74402-8.40847,5.94118-3.20901,6.34201,3.93673,19.24676,11.48239,19.95382,6.05714,.56761,11.66921-6.7906,11.97903-6.44227,.29219,.32853-6.69168,4.63147-8.77475,11.31388-2.98256,9.56783,4.21967,23.57076,12.45085,24.85913,9.19734,1.43962,19.24041-13.06397,19.48643-12.81713,.26011,.26093-15.32592,12.08601-13.11157,20.32454,1.4852,5.52575,9.59938,8.74113,15.7855,8.70734,12.91162-.07052,24.27872-14.20619,22.88849-24.49729-1.08096-8.00184-8.93697-6.73764-18.62351-18.95165-11.8954-14.99927-10.97662-30.6861-22.46369-36.33707-1.04461-.51388-4.40796-2.16849-6.27376-.79996-2.97976,2.18556-.07688,10.56865-.73256,10.74539-.70929,.19116-2.54015-10.0414-9.68025-19.08645-2.24582-2.84498-7.35526-9.31761-12.64862-8.30736-2.695,.51431-4.32434,2.75584-5.30529,4.10535Z" fill="#607d8b"/><path d="M10.39805,138.18426c-4.90276,6.74479-4.37363,18.30754,.7707,21.45707,4.23464,2.59262,10.93203-.92244,11.17907-.16851,.23087,.70462-6.28474,1.74402-8.40847,5.94118-3.20901,6.34201,3.93673,19.24676,11.48239,19.95382,6.05714,.56761,11.66921-6.7906,11.97903-6.44227,.29219,.32853-6.69168,4.63147-8.77475,11.31388-2.98256,9.56783,4.21967,23.57076,12.45085,24.85913,9.19734,1.43962,19.24041-13.06397,19.48643-12.81713,.26011,.26093-15.32592,12.08601-13.11157,20.32454,1.4852,5.52575,9.59938,8.74113,15.7855,8.70734,12.91162-.07052,24.27872-14.20619,22.88849-24.49729-1.08096-8.00184-8.93697-6.73764-18.62351-18.95165-11.8954-14.99927-10.97662-30.6861-22.46369-36.33707-1.04461-.51388-4.40796-2.16849-6.27376-.79996-2.97976,2.18556-.07688,10.56865-.73256,10.74539-.70929,.19116-2.54015-10.0414-9.68025-19.08645-2.24582-2.84498-7.35526-9.31761-12.64862-8.30736-2.695,.51431-4.32434,2.75584-5.30529,4.10535Z" fill="#607d8b"/></g><g><path d="M386.97684,350.76907c.07001,.59003,.08997,1.14001,.04999,1.67999h-29.69c-.27002-.53998-.5-1.09998-.70001-1.67999-3.63-10.42999,2.34003-27.78998-5.22998-53.52997-5.62-19.10004-16.10999-34.04004-21-41-6.01001-8.56-12.82001-16.46002-20.71002-29.08002-1.70996-2.72998-3.46997-5.69-5.28998-8.91998-.60999-1.08002-7.64001-13.60999-7-14,.29999-.17999,2.15997,2.34998,2.78998,3.20001,5.56,7.51996,8.79004,10.81,13.42004,16.21997,2.81,3.28003,6.13,7.33002,10.78998,13.58002,11.95001,16.01001,17.91998,24.01001,20,30,.54999,1.59998,3.47998,10.26001,9,21,2.82001,5.47998,4.22998,8.21997,5,8,2.17999-.63-.76001-23.32001-10-46-1.58002-3.85999-2.76001-6.33002-5-11-3.64001-7.62-23.90997-49.97003-38.81-75.32001-1.87-3.19-3.65997-6.10004-5.31-8.65002-.32001-.47998-.63-.95001-.92999-1.39996-2.08002-3.10004-3.91998-5.55005-5.45001-7.13-.81-.84003-2.87-3.22003-7-8-1.64001-1.90002-2.84003-3.31-3.65002-4.34003-.12-.14996-.22998-.29999-.31995-.42999-.98004-1.27997-1.26001-1.90002-1.03003-2.22998,.33002-.47003,1.59998-.20001,2.98999,.28998,.15002,.04999,.31,.10999,.46002,.16998,1.51001,.56,3.03998,1.29004,3.54999,1.54004,4.67999,2.25,9.25,6.27997,13.47998,11.07001,1.57001,1.76996,3.08002,3.63995,4.54004,5.56,4.69995,6.19995,8.79999,12.94995,11.89996,18.5,3.79999,6.83997,6.08002,11.87,6.08002,11.87,10.60999,23.42999,22.38,50.22998,23,50,.67999-.25-12.37-33.60999-16.16998-51.73004-1.27002-6.06995-1.5-10.42999,.16998-11.26996,.06-.03003,.12-.06,.19-.08002,.26001-.09003,.5-.08002,.63-.07001,0,0,1.54999-.20001,3.17999,.15002,2.03003,.44,4.34003,6.08997,6.59003,14.01996,5.84998,20.44,11.40997,55.98004,11.40997,55.98004,5.56,35.54999,14,64.32001,16,64,1.10999-.17999-.47998-9.10999,1-24,1.03998-10.44,2.21997-10.12,6-29,6-29.95001,9-44.92004,9-45-.03003-.63-.10999-1.90002,.08002-3.22003,.20001-1.42999,.70996-2.92999,1.91998-3.77997,1.84003-1.29999,4.79999-.73999,6,0,.96002,.59998,1.45001,1.70001,1.56,3.27997,.65997,9.94-13.62,38.76001-18.56,77.72003-2.46002,19.40997-3.81,30,0,44,3.77002,13.88,10.34003,22.71997,11.07001,29.02997Z" fill="#3f3d56"/><path d="M427.40683,100.2391c-8.20374-1.49261-18.39307,3.99872-19,10-.49963,4.94006,5.5722,9.45044,5,10-.53479,.51361-4.29706-4.90662-9-5-7.10626-.14111-15.63531,11.89423-13,19,2.11542,5.70404,11.1795,7.56976,11,8-.16931,.40576-7.07532-4.02106-14-3-9.91473,1.46191-19.40881,14.02441-17,22,2.69153,8.91174,20.11572,11.67126,20,12-.12231,.34753-17.53687-8.56818-24-3-4.33496,3.73468-3.71326,12.44055-1,18,5.66309,11.60364,23.32996,15.71576,32,10,6.74139-4.44427,2.19525-10.97479,9-25,8.35651-17.22345,22.88983-23.19867,23-36,.01001-1.16412,.0423-4.91229-2-6-3.2616-1.73712-9.5564,4.51416-10,4-.47986-.55621,7.94635-6.64362,13-17,1.58954-3.25745,5.20593-10.66846,2-15-1.6322-2.20532-4.35858-2.70135-6-3Z" fill="#607d8b"/><path d="M381.40683,81.2391c-8.20374-1.49261-18.39307,3.99872-19,10-.49963,4.94006,5.5722,9.45044,5,10-.53479,.51361-4.29706-4.90662-9-5-7.10626-.14111-15.63531,11.89423-13,19,2.11542,5.70404,11.1795,7.56976,11,8-.16931,.40576-7.07532-4.02106-14-3-9.91473,1.46191-19.40881,14.02441-17,22,2.69153,8.91174,20.11572,11.67126,20,12-.12231,.34753-17.53687-8.56818-24-3-4.33496,3.73468-3.71326,12.44055-1,18,5.66309,11.60364,23.32996,15.71576,32,10,6.74139-4.44427,2.19525-10.97479,9-25,8.35651-17.22345,22.88983-23.19867,23-36,.01001-1.16412,.0423-4.91229-2-6-3.2616-1.73712-9.5564,4.51416-10,4-.47986-.55621,7.94635-6.64362,13-17,1.58954-3.25745,5.20593-10.66846,2-15-1.6322-2.20532-4.35858-2.70135-6-3Z" fill="#607d8b"/><path d="M325.70497,59.03498c7.77591,3.01071,13.59847,13.01446,10.98244,18.44955-2.15341,4.474-9.6869,5.15017-9.48586,5.91764,.18791,.71728,6.22678-1.94082,10.28643,.43524,6.13423,3.59028,7.12379,18.30812,1.1659,22.99219-4.78256,3.76008-13.48704,.61832-13.55861,1.07898-.06748,.43446,8.1338,.26513,13.50633,4.75174,7.69238,6.42389,9.2297,22.09522,3.0108,27.63938-6.94884,6.19493-23.24991-.54989-23.32287-.2091-.07715,.36026,19.43023,1.84976,22.03479,9.97337,1.74694,5.44866-3.32916,12.5488-8.54608,15.87339-10.88873,6.93906-28.10304,1.22109-32.5127-8.18075-3.42874-7.31039,3.85842-10.50608,5.37846-26.02061,1.86663-19.0524-7.40802-31.73711-.8176-42.71219,.59933-.99804,2.52894-4.21151,4.83867-4.07275,3.6887,.22159,5.79301,8.83988,6.43981,8.63301,.69968-.2238-3.30796-9.81527-2.21023-21.2865,.34529-3.6081,1.13081-11.81689,6.12675-13.83701,2.54355-1.02852,5.12775-.02795,6.68356,.57444Z" fill="#607d8b"/><path d="M237.39805,64.4743c-4.90276,6.74479-4.37363,18.30754,.7707,21.45707,4.23464,2.59262,10.93203-.92244,11.17907-.16851,.23087,.70462-6.28474,1.74402-8.40847,5.94118-3.20901,6.34201,3.93673,19.24676,11.48239,19.95382,6.05714,.56761,11.66921-6.7906,11.97903-6.44227,.29219,.32853-6.69168,4.63147-8.77475,11.31388-2.98256,9.56783,4.21967,23.57076,12.45085,24.85913,9.19734,1.43962,19.24041-13.06397,19.48643-12.81713,.26011,.26093-15.32592,12.08601-13.11157,20.32454,1.4852,5.52575,9.59938,8.74113,15.7855,8.70734,12.91162-.07052,24.27872-14.20619,22.88849-24.49729-1.08096-8.00184-8.93697-6.73764-18.62351-18.95165-11.8954-14.99927-10.97662-30.6861-22.46369-36.33707-1.04461-.51388-4.40796-2.16849-6.27376-.79996-2.97976,2.18556-.07688,10.56865-.73256,10.74539-.70929,.19116-2.54015-10.0414-9.68025-19.08645-2.24582-2.84498-7.35526-9.31761-12.64862-8.30736-2.695,.51431-4.32434,2.75584-5.30529,4.10535Z" fill="#607d8b"/><path d="M244.39805,138.4743c-4.90276,6.74479-4.37363,18.30754,.7707,21.45707,4.23464,2.59262,10.93203-.92244,11.17907-.16851,.23087,.70462-6.28474,1.74402-8.40847,5.94118-3.20901,6.34201,3.93673,19.24676,11.48239,19.95382,6.05714,.56761,11.66921-6.7906,11.97903-6.44227,.29219,.32853-6.69168,4.63147-8.77475,11.31388-2.98256,9.56783,4.21967,23.57076,12.45085,24.85913,9.19734,1.43962,19.24041-13.06397,19.48643-12.81713,.26011,.26093-15.32592,12.08601-13.11157,20.32454,1.4852,5.52575,9.59938,8.74113,15.7855,8.70734,12.91162-.07052,24.27872-14.20619,22.88849-24.49729-1.08096-8.00184-8.93697-6.73764-18.62351-18.95165-11.8954-14.99927-10.97662-30.6861-22.46369-36.33707-1.04461-.51388-4.40796-2.16849-6.27376-.79996-2.97976,2.18556-.07688,10.56865-.73256,10.74539-.70929,.19116-2.54015-10.0414-9.68025-19.08645-2.24582-2.84498-7.35526-9.31761-12.64862-8.30736-2.695,.51431-4.32434,2.75584-5.30529,4.10535Z" fill="#607d8b"/></g><g><path d="M814.83682,350.76907c-.07001,.59003-.08997,1.14001-.04999,1.67999h29.69c.27002-.53998,.5-1.09998,.70001-1.67999,3.63-10.42999-2.34003-27.78998,5.22998-53.52997,5.62-19.10004,16.10999-34.04004,21-41,6.01001-8.56,12.82001-16.46002,20.71002-29.08002,1.70996-2.72998,3.46997-5.69,5.28998-8.91998,.60999-1.08002,7.64001-13.60999,7-14-.29999-.17999-2.15997,2.34998-2.78998,3.20001-5.56,7.51996-8.79004,10.81-13.42004,16.21997-2.81,3.28003-6.13,7.33002-10.78998,13.58002-11.95001,16.01001-17.91998,24.01001-20,30-.54999,1.59998-3.47998,10.26001-9,21-2.82001,5.47998-4.22998,8.21997-5,8-2.17999-.63,.76001-23.32001,10-46,1.58002-3.85999,2.76001-6.33002,5-11,3.64001-7.62,23.90997-49.97003,38.81-75.32001,1.87-3.19,3.65997-6.10004,5.31-8.65002,.32001-.47998,.63-.95001,.92999-1.39996,2.08002-3.10004,3.91998-5.55005,5.45001-7.13,.81-.84003,2.87-3.22003,7-8,1.64001-1.90002,2.84003-3.31,3.65002-4.34003,.12-.14996,.22998-.29999,.31995-.42999,.98004-1.27997,1.26001-1.90002,1.03003-2.22998-.33002-.47003-1.59998-.20001-2.98999,.28998-.15002,.04999-.31,.10999-.46002,.16998-1.51001,.56-3.03998,1.29004-3.54999,1.54004-4.67999,2.25-9.25,6.27997-13.47998,11.07001-1.57001,1.76996-3.08002,3.63995-4.54004,5.56-4.69995,6.19995-8.79999,12.94995-11.89996,18.5-3.79999,6.83997-6.08002,11.87-6.08002,11.87-10.60999,23.42999-22.38,50.22998-23,50-.67999-.25,12.37-33.60999,16.16998-51.73004,1.27002-6.06995,1.5-10.42999-.16998-11.26996-.06-.03003-.12-.06-.19-.08002-.26001-.09003-.5-.08002-.63-.07001,0,0-1.54999-.20001-3.17999,.15002-2.03003,.44-4.34003,6.08997-6.59003,14.01996-5.84998,20.44-11.40997,55.98004-11.40997,55.98004-5.56,35.54999-14,64.32001-16,64-1.10999-.17999,.47998-9.10999-1-24-1.03998-10.44-2.21997-10.12-6-29-6-29.95001-9-44.92004-9-45,.03003-.63,.10999-1.90002-.08002-3.22003-.20001-1.42999-.70996-2.92999-1.91998-3.77997-1.84003-1.29999-4.79999-.73999-6,0-.96002,.59998-1.45001,1.70001-1.56,3.27997-.65997,9.94,13.62,38.76001,18.56,77.72003,2.46002,19.40997,3.81,30,0,44-3.77002,13.88-10.34003,22.71997-11.07001,29.02997Z" fill="#3f3d56"/><path d="M774.40683,100.2391c8.20374-1.49261,18.39307,3.99872,19,10,.49963,4.94006-5.5722,9.45044-5,10,.53479,.51361,4.29706-4.90662,9-5,7.10626-.14111,15.63531,11.89423,13,19-2.11542,5.70404-11.1795,7.56976-11,8,.16931,.40576,7.07532-4.02106,14-3,9.91473,1.46191,19.40881,14.02441,17,22-2.69153,8.91174-20.11572,11.67126-20,12,.12231,.34753,17.53687-8.56818,24-3,4.33496,3.73468,3.71326,12.44055,1,18-5.66309,11.60364-23.32996,15.71576-32,10-6.74139-4.44427-2.19525-10.97479-9-25-8.35651-17.22345-22.88983-23.19867-23-36-.01001-1.16412-.0423-4.91229,2-6,3.2616-1.73712,9.5564,4.51416,10,4,.47986-.55621-7.94635-6.64362-13-17-1.58954-3.25745-5.20593-10.66846-2-15,1.6322-2.20532,4.35858-2.70135,6-3Z" fill="#607d8b"/><path d="M820.40683,81.2391c8.20374-1.49261,18.39307,3.99872,19,10,.49963,4.94006-5.5722,9.45044-5,10,.53479,.51361,4.29706-4.90662,9-5,7.10626-.14111,15.63531,11.89423,13,19-2.11542,5.70404-11.1795,7.56976-11,8,.16931,.40576,7.07532-4.02106,14-3,9.91473,1.46191,19.40881,14.02441,17,22-2.69153,8.91174-20.11572,11.67126-20,12,.12231,.34753,17.53687-8.56818,24-3,4.33496,3.73468,3.71326,12.44055,1,18-5.66309,11.60364-23.32996,15.71576-32,10-6.74139-4.44427-2.19525-10.97479-9-25-8.35651-17.22345-22.88983-23.19867-23-36-.01001-1.16412-.0423-4.91229,2-6,3.2616-1.73712,9.5564,4.51416,10,4,.47986-.55621-7.94635-6.64362-13-17-1.58954-3.25745-5.20593-10.66846-2-15,1.6322-2.20532,4.35858-2.70135,6-3Z" fill="#607d8b"/><path d="M876.10869,59.03498c-7.77591,3.01071-13.59847,13.01446-10.98244,18.44955,2.15341,4.474,9.6869,5.15017,9.48586,5.91764-.18791,.71728-6.22678-1.94082-10.28643,.43524-6.13423,3.59028-7.12379,18.30812-1.1659,22.99219,4.78256,3.76008,13.48704,.61832,13.55861,1.07898,.06748,.43446-8.1338,.26513-13.50633,4.75174-7.69238,6.42389-9.2297,22.09522-3.0108,27.63938,6.94884,6.19493,23.24991-.54989,23.32287-.2091,.07715,.36026-19.43023,1.84976-22.03479,9.97337-1.74694,5.44866,3.32916,12.5488,8.54608,15.87339,10.88873,6.93906,28.10304,1.22109,32.5127-8.18075,3.42874-7.31039-3.85842-10.50608-5.37846-26.02061-1.86663-19.0524,7.40802-31.73711,.8176-42.71219-.59933-.99804-2.52894-4.21151-4.83867-4.07275-3.6887,.22159-5.79301,8.83988-6.43981,8.63301-.69968-.2238,3.30796-9.81527,2.21023-21.2865-.34529-3.6081-1.13081-11.81689-6.12675-13.83701-2.54355-1.02852-5.12775-.02795-6.68356,.57444Z" fill="#607d8b"/><path d="M964.41561,64.4743c4.90276,6.74479,4.37363,18.30754-.7707,21.45707-4.23464,2.59262-10.93203-.92244-11.17907-.16851-.23087,.70462,6.28474,1.74402,8.40847,5.94118,3.20901,6.34201-3.93673,19.24676-11.48239,19.95382-6.05714,.56761-11.66921-6.7906-11.97903-6.44227-.29219,.32853,6.69168,4.63147,8.77475,11.31388,2.98256,9.56783-4.21967,23.57076-12.45085,24.85913-9.19734,1.43962-19.24041-13.06397-19.48643-12.81713-.26011,.26093,15.32592,12.08601,13.11157,20.32454-1.4852,5.52575-9.59938,8.74113-15.7855,8.70734-12.91162-.07052-24.27872-14.20619-22.88849-24.49729,1.08096-8.00184,8.93697-6.73764,18.62351-18.95165,11.8954-14.99927,10.97662-30.6861,22.46369-36.33707,1.04461-.51388,4.40796-2.16849,6.27376-.79996,2.97976,2.18556,.07688,10.56865,.73256,10.74539,.70929,.19116,2.54015-10.0414,9.68025-19.08645,2.24582-2.84498,7.35526-9.31761,12.64862-8.30736,2.695,.51431,4.32434,2.75584,5.30529,4.10535Z" fill="#607d8b"/><path d="M957.41561,138.4743c4.90276,6.74479,4.37363,18.30754-.7707,21.45707-4.23464,2.59262-10.93203-.92244-11.17907-.16851-.23087,.70462,6.28474,1.74402,8.40847,5.94118,3.20901,6.34201-3.93673,19.24676-11.48239,19.95382-6.05714,.56761-11.66921-6.7906-11.97903-6.44227-.29219,.32853,6.69168,4.63147,8.77475,11.31388,2.98256,9.56783-4.21967,23.57076-12.45085,24.85913-9.19734,1.43962-19.24041-13.06397-19.48643-12.81713-.26011,.26093,15.32592,12.08601,13.11157,20.32454-1.4852,5.52575-9.59938,8.74113-15.7855,8.70734-12.91162-.07052-24.27872-14.20619-22.88849-24.49729,1.08096-8.00184,8.93697-6.73764,18.62351-18.95165,11.8954-14.99927,10.97662-30.6861,22.46369-36.33707,1.04461-.51388,4.40796-2.16849,6.27376-.79996,2.97976,2.18556,.07688,10.56865,.73256,10.74539,.70929,.19116,2.54015-10.0414,9.68025-19.08645,2.24582-2.84498,7.35526-9.31761,12.64862-8.30736,2.695,.51431,4.32434,2.75584,5.30529,4.10535Z" fill="#607d8b"/></g><path d="M847.35684,353.31906c0,.46997-.37,.83997-.84003,.83997H73.3168v-1.67999H846.51681c.47003,0,.84003,.38,.84003,.84003Z" fill="#e6e6e6"/></svg>